<svg width="126" height="30" viewBox="0 0 126 30" fill="none" xmlns="http://www.w3.org/2000/svg">
<path fill-rule="evenodd" clip-rule="evenodd" d="M48.8804 21.6855L47.1661 29.6557H43.2231L49.7376 0.770734H54.4084L60.5371 29.6557H56.5513L54.8798 21.6855H48.8804ZM54.4084 18.4712L53.0798 11.5703C52.6941 9.5988 52.3084 7.02874 52.0091 4.97083H51.8369C51.5376 7.07088 51.1076 9.72738 50.7233 11.5703L49.3519 18.4712H54.4084ZM75.5875 0V24.2992C75.5875 25.8856 75.6732 28.2 75.7582 29.6564H72.2874L72.0303 27.1285H71.9017C71.216 28.585 69.6302 30 67.5309 30C63.6736 30 61.3164 25.7992 61.3164 19.329C61.3164 11.9574 64.4444 8.48592 67.7452 8.48592C69.4159 8.48592 70.7445 9.25808 71.4731 10.8431H71.5588V0H75.5875ZM71.5581 16.7568C71.5581 16.3718 71.5581 15.9004 71.5152 15.4704C71.301 13.5853 70.2295 11.9567 68.773 11.9567C66.2437 11.9567 65.3872 15.4704 65.3872 19.3283C65.3872 23.6141 66.5016 26.6135 68.6445 26.6135C69.5445 26.6135 70.7438 26.1421 71.4295 23.657C71.5152 23.3141 71.5581 22.7991 71.5581 22.3291V16.7568ZM85.1834 29.9993C81.0269 29.9993 78.0261 26.4421 78.0261 19.2862C78.0261 11.6996 81.5826 8.48521 85.397 8.48521C89.5114 8.48521 92.4679 12.171 92.4679 19.1997C92.4679 27.4714 88.3964 29.9993 85.2256 29.9993H85.1834ZM85.3113 26.8285C87.7963 26.8285 88.3542 22.4141 88.3542 19.2433C88.3542 16.114 87.7971 11.6574 85.2263 11.6574C82.5684 11.6574 82.0548 16.114 82.0548 19.2433C82.0548 22.7141 82.6548 26.8285 85.2691 26.8285H85.3113ZM94.8965 0H98.9245V11.1853H99.0102C100.082 9.30022 101.539 8.48521 103.382 8.48521C106.938 8.48521 109.168 12.5139 109.168 18.8997C109.168 26.3563 106.125 29.9993 102.696 29.9993C100.639 29.9993 99.4816 28.8843 98.5809 27.0414H98.4109L98.1959 29.6557H94.7251C94.8108 28.2421 94.8965 25.8849 94.8965 24.2984V0ZM98.9245 22.2841C98.9245 22.757 98.9673 23.2284 99.0959 23.5706C99.7381 26.0999 100.982 26.6135 101.795 26.6135C104.195 26.6135 105.095 23.4427 105.095 19.1569C105.095 15.1711 104.153 11.9567 101.752 11.9567C100.424 11.9567 99.3523 13.5425 99.0523 15.0425C98.9666 15.4711 98.9237 16.029 98.9237 16.4568V22.2841H98.9245ZM115.112 20.0562C115.155 25.4135 117.468 26.7414 119.911 26.7414C121.369 26.7414 122.611 26.3992 123.511 25.9699L124.111 28.8843C122.869 29.5271 120.983 29.8707 119.14 29.8707C113.912 29.8707 111.169 25.9278 111.169 19.499C111.169 12.6846 114.297 8.48449 118.626 8.48449C122.954 8.48449 124.969 12.6417 124.969 17.8711C124.969 18.899 124.925 19.5426 124.883 20.0991L115.112 20.0562ZM121.154 17.1854C121.197 13.4996 119.911 11.5288 118.326 11.5288C116.226 11.5288 115.283 14.5718 115.155 17.1854H121.154Z" fill="#D2D1DA"/>
<path fill-rule="evenodd" clip-rule="evenodd" d="M20.5198 0.8479H32.5536V29.6557L20.5198 0.8479ZM12.0424 0.8479H0V29.6557L12.0424 0.8479ZM16.2818 11.4646L23.9491 29.6557H18.9247L16.6318 23.862H11.0195L16.2818 11.4646Z" fill="#D2D1DA"/>
<path fill-rule="evenodd" clip-rule="evenodd" d="M124.627 8.43165C124.747 8.43221 124.867 8.45667 124.978 8.50363C125.089 8.55059 125.19 8.61911 125.275 8.70525C125.359 8.79138 125.426 8.89342 125.471 9.00547C125.516 9.11753 125.538 9.23738 125.537 9.3581C125.537 9.88097 125.133 10.2888 124.622 10.2888C124.116 10.2888 123.704 9.88169 123.704 9.3581C123.703 9.23692 123.726 9.11679 123.772 9.0046C123.818 8.89242 123.886 8.79037 123.971 8.70432C124.056 8.61826 124.158 8.54988 124.269 8.50309C124.381 8.4563 124.501 8.43202 124.622 8.43165H124.627ZM124.622 8.57523C124.215 8.57523 123.881 8.92595 123.881 9.3581C123.881 9.79883 124.215 10.1446 124.627 10.1446C125.038 10.1488 125.367 9.79883 125.367 9.36239C125.367 8.92595 125.038 8.57523 124.627 8.57523H124.622ZM124.449 9.89812H124.285V8.86381C124.372 8.85166 124.454 8.8388 124.578 8.8388C124.734 8.8388 124.837 8.87238 124.899 8.91738C124.961 8.96238 124.994 9.03238 124.994 9.13167C124.994 9.26739 124.903 9.35024 124.792 9.3831V9.39096C124.882 9.40739 124.944 9.49025 124.964 9.64239C124.989 9.80311 125.014 9.86454 125.031 9.89812H124.858C124.833 9.86454 124.809 9.77025 124.788 9.63453C124.763 9.50239 124.697 9.4531 124.565 9.4531H124.45V9.89812H124.449ZM124.449 9.32524H124.569C124.704 9.32524 124.821 9.27596 124.821 9.1481C124.821 9.05738 124.754 8.96666 124.569 8.96666C124.516 8.96666 124.478 8.97095 124.449 8.97524V9.32524ZM34.1402 0.8479C34.2609 0.848456 34.3803 0.872916 34.4916 0.919875C34.6028 0.966833 34.7036 1.03536 34.7882 1.12149C34.8729 1.20763 34.9396 1.30967 34.9845 1.42172C35.0295 1.53377 35.0518 1.65362 35.0502 1.77435C35.0502 2.29722 34.6466 2.70509 34.1359 2.70509C33.6295 2.70509 33.2173 2.29793 33.2173 1.77435C33.2166 1.65316 33.2399 1.53304 33.2857 1.42085C33.3316 1.30866 33.3991 1.20662 33.4844 1.12056C33.5697 1.0345 33.6712 0.966123 33.783 0.919335C33.8948 0.872547 34.0147 0.848274 34.1359 0.8479H34.1402ZM34.1359 0.991473C33.728 0.991473 33.3944 1.3422 33.3944 1.77435C33.3944 2.21507 33.728 2.56079 34.1402 2.56079C34.5516 2.56508 34.8816 2.21508 34.8816 1.77864C34.8816 1.3422 34.5516 0.991473 34.1402 0.991473H34.1359ZM33.963 2.31437H33.798V1.28005C33.8948 1.26399 33.9928 1.25587 34.0909 1.25577C34.2473 1.25577 34.3502 1.28791 34.4116 1.33363C34.4738 1.37863 34.5066 1.44934 34.5066 1.54791C34.5066 1.68363 34.4159 1.76649 34.3045 1.79935V1.80721C34.3952 1.82363 34.4573 1.9065 34.478 2.05936C34.5023 2.22008 34.5273 2.28151 34.5438 2.31508H34.3709C34.3459 2.28151 34.3209 2.18722 34.3009 2.0515C34.2759 1.91935 34.2102 1.87007 34.078 1.87007H33.963V2.31437ZM33.963 1.74149H34.0823C34.218 1.74149 34.3338 1.69221 34.3338 1.56434C34.3338 1.47363 34.268 1.38291 34.0823 1.38291C34.0287 1.38291 33.9916 1.3872 33.963 1.39149V1.74149Z" fill="#D2D1DA"/>
</svg>
